<svg xmlns="http://www.w3.org/2000/svg" xmlns:xlink="http://www.w3.org/1999/xlink" width="64" height="64" preserveAspectRatio="xMidYMid meet" viewBox="0 0 16 16" style="-ms-transform: rotate(360deg); -webkit-transform: rotate(360deg); transform: rotate(360deg);"><g fill="#626262"><path fill-rule="evenodd" d="M1 14s-1 0-1-1s1-4 6-4s6 3 6 4s-1 1-1 1H1zm5-6a3 3 0 1 0 0-6a3 3 0 0 0 0 6zm9.854-2.854a.5.5 0 0 1 0 .708l-3 3a.5.5 0 0 1-.708 0l-1.5-1.5a.5.5 0 0 1 .708-.708L12.5 7.793l2.646-2.647a.5.5 0 0 1 .708 0z"/></g><rect x="0" y="0" width="16" height="16" fill="rgba(0, 0, 0, 0)" /></svg>